%FSLAX25Y25*MOIN*%
%IR0*IPPOS*OFA0.00000B0.00000*MIA0B0*SFA1.00000B1.00000*%
%ADD17C,.128*%
%ADD13R,.032X.038*%
%ADD11C,.04*%
%ADD14C,.024*%
%ADD10C,.025*%
%ADD15C,.055*%
%ADD16R,.055X.055*%
%ADD12R,.058X.058*%
%ADD18C,.01*%
%ADD19C,.015*%
%ADD20C,.168004*%
%ADD23R,.092004X.092004*%
%ADD22C,.095004*%
%ADD21C,.089004*%
%ADD24R,.098004X.098004*%
G75*
%LPD*%
G75*
G36*
G01X271654Y22814D02*
X251989D01*
Y3937D01*
X23602D01*
Y22814D01*
X3937D01*
Y276398D01*
X23602D01*
Y295276D01*
X251989D01*
Y276398D01*
X271654D01*
Y22814D01*
G37*
%LPC*%
G75*
G36*
G01X240346Y51750D02*
X219846D01*
X193846Y25750D01*
X186426D01*
G03X186143Y25067I0J-400D01*
G01X189864Y21346D01*
Y15196D01*
G02X183364I-3250J-3464D01*
G01Y18654D01*
X181382Y20636D01*
X78268D01*
X66750Y32154D01*
Y38668D01*
G02X73250I3250J2332D01*
G01Y34846D01*
X74010Y34087D01*
G03X74630Y34154I283J283D01*
G02X78527Y35965I3371J-2154D01*
G02X84832Y38750I3973J-465D01*
G01X166654D01*
X198654Y70750D01*
X217404D01*
X217904Y71250D01*
X219536D01*
G02X220084Y64250I3464J-3250D01*
G01X201346D01*
X170030Y32933D01*
G03X170312Y32250I283J-283D01*
G01X191154D01*
X217154Y58250D01*
X228250D01*
Y67750D01*
X237750D01*
Y59312D01*
G03X238433Y59030I400J0D01*
G01X241750Y62346D01*
Y68154D01*
X240154Y69750D01*
X236464D01*
G02Y76250I-3464J3250D01*
G01X242846D01*
X248250Y70846D01*
Y59654D01*
X240346Y51750D01*
G37*
G36*
G01X8750Y54139D02*
Y59895D01*
G02X9433Y60178I400J0D01*
G01X19361Y50250D01*
X57895D01*
G02X58178Y49567I0J-400D01*
G01X55361Y46750D01*
X16139D01*
X8750Y54139D01*
G37*
G36*
G01X90500Y42000D02*
X86672D01*
X77500Y51172D01*
Y58730D01*
G03X77100Y59130I-400J0D01*
G02X76773Y59300I0J400D01*
G03X72812Y60941I-3273J-2300D01*
G02X72357Y61440I-69J394D01*
G03X69893Y66250I-3857J1060D01*
G03X69367Y65977I-139J-375D01*
G02X64957Y63037I-3867J1023D01*
G03X64503Y62656I-54J-396D01*
G03X64500Y62473I3997J-155D01*
G01X64500Y62390D01*
X57861Y55750D01*
X55105D01*
G02X54822Y55867I0J400D01*
G03X54257I-283J-283D01*
G01X52639Y54250D01*
X19861D01*
X11250Y62861D01*
Y109095D01*
G02X16750I2750J2905D01*
G01Y65139D01*
X22139Y59750D01*
X50361D01*
X60361Y69750D01*
X62595D01*
G02X66688Y70820I2905J-2750D01*
G03X67177Y71048I119J382D01*
G02X67224Y71132I370J-153D01*
G03X67776Y74820I-3224J2368D01*
G02X67871Y75235I378J132D01*
G03Y75800I-283J283D01*
G01X66300Y77371D01*
G03X65735I-283J-283D01*
G02X65320Y77276I-283J283D01*
G03X60000Y73473I-1320J-3776D01*
G01X60000Y73390D01*
X49861Y63250D01*
X26139D01*
X21250Y68139D01*
Y75395D01*
G02X21367Y75678I400J0D01*
G03Y76243I-283J283D01*
G01X18750Y78861D01*
Y113639D01*
X26861Y121750D01*
X32861D01*
X60861Y149750D01*
X83861D01*
X86361Y152250D01*
X165139D01*
X169364Y148025D01*
Y145605D01*
G02X163593Y145398I-2750J-3873D01*
G03X163622Y145989I-254J309D01*
G01X162861Y146750D01*
X158894D01*
G03X158717Y145991I0J-400D01*
G02X154511I-2103J-4259D01*
G03X154334Y146750I-177J359D01*
G01X148894D01*
G03X148717Y145991I0J-400D01*
G02X144511I-2103J-4259D01*
G03X144334Y146750I-177J359D01*
G01X138894D01*
G03X138717Y145991I0J-400D01*
G02X134511I-2103J-4259D01*
G03X134334Y146750I-177J359D01*
G01X128894D01*
G03X128717Y145991I0J-400D01*
G02X124511I-2103J-4259D01*
G03X124334Y146750I-177J359D01*
G01X118894D01*
G03X118717Y145991I0J-400D01*
G02X114511I-2103J-4259D01*
G03X114334Y146750I-177J359D01*
G01X108894D01*
G03X108717Y145991I0J-400D01*
G02X104511I-2103J-4259D01*
G03X104334Y146750I-177J359D01*
G01X98894D01*
G03X98717Y145991I0J-400D01*
G02X94511I-2103J-4259D01*
G03X94334Y146750I-177J359D01*
G01X88639D01*
X86139Y144250D01*
X63139D01*
X35139Y116250D01*
X29139D01*
X27972Y115083D01*
G03X28255Y114400I283J-283D01*
G01X36400D01*
Y110000D01*
X42828D01*
X55828Y97000D01*
X76828D01*
X93000Y80828D01*
Y61500D01*
X118672D01*
X122500Y65328D01*
Y97115D01*
X101727Y116000D01*
X93000D01*
Y122500D01*
X83138D01*
X82440Y132268D01*
X86172Y136000D01*
X108328D01*
X116500Y127829D01*
Y118828D01*
X123829Y111500D01*
X135829D01*
X145000Y102328D01*
Y83500D01*
X132500D01*
Y81500D01*
X145000D01*
Y72172D01*
X114828Y42000D01*
X93000D01*
Y48500D01*
X90500D01*
Y42000D01*
G37*
G54D20*
X258000Y90500D03*
Y50500D03*
G54D23*
X18000Y161000D03*
G54D22*
X176614Y287402D03*
X186614D03*
X176614Y141732D03*
X186614D03*
Y157402D03*
X176614D03*
Y11732D03*
X146614Y287402D03*
X156614D03*
X166614D03*
Y157402D03*
X156614D03*
X146614D03*
X166614Y11732D03*
X156614D03*
X146614D03*
X126614Y287402D03*
X136614D03*
Y157402D03*
X126614D03*
X136614Y11732D03*
X126614D03*
X96614Y287402D03*
X106614D03*
X116614D03*
Y157402D03*
X106614D03*
X96614D03*
X116614Y11732D03*
X106614D03*
X96614D03*
G54D21*
X223000Y78000D03*
G54D24*
X18000Y133000D03*
%LPD*%
G75*
G36*
G01X87500Y44000D02*
X79500Y52000D01*
Y67000D01*
X66500Y80000D01*
X36400D01*
Y94400D01*
X26600D01*
Y80000D01*
X25389D01*
X24500Y80889D01*
Y108000D01*
X26600D01*
Y104600D01*
X36400D01*
Y108000D01*
X42000D01*
X55000Y95000D01*
X76000D01*
X91000Y80000D01*
Y59500D01*
X119500D01*
X124500Y64500D01*
Y98000D01*
X102500Y118000D01*
X95000D01*
Y124500D01*
X94000D01*
Y125164D01*
X95436Y126600D01*
X96500D01*
Y126900D01*
X101800D01*
Y134000D01*
X107500D01*
X114500Y127000D01*
Y118000D01*
X123000Y109500D01*
X135000D01*
X143000Y101500D01*
Y85500D01*
X136008D01*
G03X131839Y85529I-2108J-3400D01*
G01X131792Y85500D01*
X131500D01*
X130500Y84500D01*
Y84208D01*
X130471Y84161D01*
G03X136940Y79500I3429J-2061D01*
G01X143000D01*
Y73000D01*
X114000Y44000D01*
X95000D01*
Y44359D01*
X95067Y44418D01*
G03X89925Y50543I-2667J2982D01*
G01X89871Y50500D01*
X89000D01*
X88500Y50000D01*
Y48290D01*
X88495Y48268D01*
G03Y46532I3905J-868D01*
G01X88500Y46510D01*
Y44000D01*
X87500D01*
G37*
%LPC*%
G75*
G54D23*
X31500Y99500D03*
%LPD*%
G75*
G54D10*
G01X70000Y41000D02*
Y33500D01*
X79614Y23886D01*
X182728D01*
X186614Y20000D01*
Y11732D01*
G01X223000Y68000D02*
X219250D01*
X218750Y67500D01*
X200000D01*
X168000Y35500D01*
X82500D01*
G01X233000Y73000D02*
X241500D01*
X245000Y69500D01*
Y61000D01*
X239000Y55000D01*
X218500D01*
X192500Y29000D01*
X81000D01*
X78000Y32000D01*
X12402Y11614D03*
Y287598D03*
X263189Y11614D03*
Y287598D03*
G54D11*
X14900Y30100D03*
X14000Y112000D03*
X15000Y265000D03*
X70000Y41000D03*
X65500Y67000D03*
X52500Y74500D03*
Y85000D03*
X82500Y35500D03*
X78000Y32000D03*
X92400Y47400D03*
X98000Y47500D03*
X133900Y82100D03*
X134000Y76500D03*
X137000Y94500D03*
X230000Y15000D03*
X260000Y265000D03*
G54D12*
X18000Y133000D03*
Y161000D03*
X31500Y69500D03*
Y79500D03*
Y89500D03*
Y109500D03*
Y99500D03*
G54D13*
X92900Y130500D03*
X98500D03*
G54D14*
X91500Y121500D03*
X99500D03*
G54D15*
X96614Y11732D03*
X106614D03*
X116614D03*
X96614Y157402D03*
X106614D03*
X116614D03*
Y141732D03*
X106614D03*
X96614D03*
X116614Y287402D03*
X106614D03*
X96614D03*
X126614Y11732D03*
X136614D03*
X126614Y157402D03*
X136614D03*
Y141732D03*
X126614D03*
X136614Y287402D03*
X126614D03*
X146614Y11732D03*
X156614D03*
X166614D03*
X146614Y157402D03*
X156614D03*
X166614D03*
Y141732D03*
X156614D03*
X146614D03*
X166614Y287402D03*
X156614D03*
X146614D03*
X176614Y11732D03*
X186614D03*
X176614Y157402D03*
X186614D03*
Y141732D03*
X176614D03*
X186614Y287402D03*
X176614D03*
X223000Y68000D03*
X233000Y73000D03*
X223000Y78000D03*
G54D16*
X233000Y63000D03*
G54D17*
X258000Y50500D03*
Y90500D03*
G54D18*
G01X18000Y156200D02*
Y161000D01*
G01D02*
Y165800D01*
G01X13200Y161000D02*
X18000D01*
G01D02*
X22800D01*
G01X31500Y94700D02*
Y99500D01*
G01D02*
Y104300D01*
G01X26700Y99500D02*
X31500D01*
G01D02*
X36300D01*
G01X91500Y121500D02*
Y126200D01*
X92900Y127600D01*
Y130500D01*
G01X98500Y126700D02*
Y130500D01*
G01D02*
X102000D01*
G01X223000Y73350D02*
Y78000D01*
G01D02*
Y82650D01*
G01X218350Y78000D02*
X223000D01*
G01D02*
X227650D01*
G01X0Y0D02*
X275591D01*
Y299213D01*
X0D01*
Y0D01*
G54D19*
G01X14000Y112000D02*
Y64000D01*
X21000Y57000D01*
X51500D01*
X61500Y67000D01*
X65500D01*
G01X166614Y141732D02*
Y146886D01*
X164000Y149500D01*
X87500D01*
X85000Y147000D01*
X62000D01*
X34000Y119000D01*
X28000D01*
X21500Y112500D01*
Y80000D01*
X27000Y74500D01*
X52500D01*
M02*
