M48
INCH,LZ
T01C.013
T02C.025
T03C.034
T04C.037
T05C.128
T06C.125
;LEADER: 12 
;HEADER: 
;CODE  : ASCII 
;FILE  : LCD-1-2.drl for board LCD.brd ... layers TOP and BOTTOM
;T01 Holesize 1. = 13.000000 Tolerance = +0.000000/-0.000000 PLATED MILS Quantity = 2
;T02 Holesize 2. = 25.000000 Tolerance = +0.000000/-0.000000 PLATED MILS Quantity = 56
;T03 Holesize 3. = 34.000000 Tolerance = +0.000000/-0.000000 PLATED MILS Quantity = 4
;T04 Holesize 4. = 37.000000 Tolerance = +0.000000/-0.000000 PLATED MILS Quantity = 7
;T05 Holesize 5. = 128.000000 Tolerance = +0.000000/-0.000000 PLATED MILS Quantity = 2
;T06 Holesize 6. = 125.000000 Tolerance = +0.000000/-0.000000 NON_PLATED MILS Quantity = 4
%
G90
T01
X00995Y01215
X00915Y01215
T02
X0078Y0032
X00825Y00355
X0098Y00475
X0134Y00765
X00525Y0085
X0137Y00945
X00924Y00474
X01339Y00821
X0015Y0265
X026Y0265
X00149Y00301
X023Y0015
X00525Y00745
X007Y0041
X00655Y0067
X0014Y0112
X00966Y01417
R09X001
X01866Y00117
R09X-001
X00966Y02874
R09X001
X01866Y01574
R09X-001
T03
X0233Y0063
X0223Y0068
X0233Y0073
X0223Y0078
T04
X0018Y0161
X0018Y0133
X00315Y00895
X00315Y00695
X00315Y00795
X00315Y00995
X00315Y01095
T05
X0258Y00505
X0258Y00905
T06
X00124Y02876
X02632Y00116
X00124Y00116
X02632Y02876
M30
