%FSLAX25Y25*MOIN*%
%IR0*IPPOS*OFA0.00000B0.00000*MIA0B0*SFA1.00000B1.00000*%
%ADD25C,.128*%
%ADD22R,.236X.098*%
%ADD23R,.02X.021*%
%ADD18O,.011X.07*%
%ADD13O,.07X.011*%
%ADD17R,.011X.07*%
%ADD14R,.07X.011*%
%ADD16R,.032X.038*%
%ADD15R,.038X.032*%
%ADD11C,.04*%
%ADD19C,.024*%
%ADD10C,.025*%
%ADD20C,.055*%
%ADD21R,.098X.039*%
%ADD24R,.055X.055*%
%ADD12R,.058X.058*%
%ADD26C,.01*%
%ADD27C,.015*%
%ADD28C,.168004*%
%ADD33R,.078004X.10667*%
%ADD32R,.092004X.092004*%
%ADD30C,.095004*%
%ADD29C,.089004*%
%ADD31R,.095004X.095004*%
G75*
%LPD*%
G75*
G36*
G01X271654Y22814D02*
X251989D01*
Y3937D01*
X23602D01*
Y22814D01*
X3937D01*
Y276398D01*
X23602D01*
Y295276D01*
X251989D01*
Y276398D01*
X271654D01*
Y22814D01*
G37*
%LPC*%
G75*
G36*
G01X99864Y15196D02*
G02X93364I-3250J-3464D01*
G01Y17540D01*
X91904Y19000D01*
X73964D01*
X55500Y37464D01*
Y70950D01*
G03X54864Y71273I-400J0D01*
G02X49928Y77564I-2363J3227D01*
G01X50000Y77624D01*
Y77736D01*
X52586Y80321D01*
G03X52321Y81004I-283J283D01*
G02X48649Y83917I179J3996D01*
G03X47981Y84092I-385J-108D01*
G01X40639Y76750D01*
X36400D01*
Y64600D01*
X26600D01*
Y66750D01*
X26461D01*
X23555Y69655D01*
G02X22874Y70782I1945J1945D01*
G02X21750Y73000I1626J2218D01*
G01Y83139D01*
X25861Y87250D01*
X26900D01*
Y94100D01*
X36100D01*
Y87250D01*
X38861D01*
X41250Y89639D01*
Y95639D01*
X60861Y115250D01*
X71918D01*
G03X72200Y115933I0J400D01*
G01X55500Y132634D01*
Y133422D01*
X55456Y133477D01*
G02X54750Y135500I2544J2023D01*
G01Y182846D01*
X123364Y251460D01*
Y283938D01*
G02X129864I3250J3464D01*
G01Y251927D01*
G03X130547Y251644I400J0D01*
G01X133364Y254461D01*
Y283938D01*
G02X139864I3250J3464D01*
G01Y255927D01*
G03X140547Y255644I400J0D01*
G01X143364Y258461D01*
Y283938D01*
G02X149864I3250J3464D01*
G01Y259427D01*
G03X150547Y259144I400J0D01*
G01X153364Y261960D01*
Y283938D01*
G02X159864I3250J3464D01*
G01Y259268D01*
X93280Y192683D01*
G03X93562Y192000I283J-283D01*
G01X164923D01*
G02X169298Y191798I2077J-2500D01*
G01X179864Y181232D01*
Y170427D01*
G03X180547Y170144I400J0D01*
G01X180750Y170346D01*
Y196654D01*
X163364Y214039D01*
Y283938D01*
G02X169864I3250J3464D01*
G01Y216732D01*
X187250Y199346D01*
Y167654D01*
X184250Y164654D01*
Y162163D01*
G03X184803Y161793I400J0D01*
G02X191364Y157334I1811J-4391D01*
G01X191363Y157250D01*
X204750Y143862D01*
Y91154D01*
X189250Y75654D01*
Y16942D01*
X189864Y16328D01*
Y15197D01*
X189925Y15138D01*
G02X182750Y14494I-3311J-3406D01*
G01Y75895D01*
G03X182067Y76178I-400J0D01*
G01X165639Y59750D01*
X114269D01*
G02X111706Y61504I0J2750D01*
G01X111690Y61543D01*
X110849Y62385D01*
G03X110257Y62356I-283J-283D01*
G02X110226Y62320I-1966J1624D01*
G01X110106Y62179D01*
X114784Y57500D01*
X143036D01*
X176913Y23623D01*
X176982Y23615D01*
G02X179864Y20386I-368J-3229D01*
G01Y15196D01*
G02X173364I-3250J-3464D01*
G01Y20100D01*
X170538Y22926D01*
G03X169856Y22615I-283J-283D01*
G02X169864Y22386I-3242J-229D01*
G01Y15196D01*
G02X163364I-3250J-3464D01*
G01Y22100D01*
X138464Y47000D01*
X135002D01*
G03X134719Y46317I0J-400D01*
G01X156799Y24237D01*
X156868Y24229D01*
G02X159750Y21000I-368J-3229D01*
G01Y15300D01*
G02X153250Y15085I-3136J-3568D01*
G01Y20714D01*
X150538Y23426D01*
G03X149856Y23115I-283J-283D01*
G02X149864Y22886I-3242J-229D01*
G01Y15196D01*
G02X143364I-3250J-3464D01*
G01Y22600D01*
X126464Y39500D01*
X123031D01*
G03X122748Y38817I0J-400D01*
G01X123165Y38400D01*
X123393D01*
X136913Y24880D01*
X136982Y24872D01*
G02X139864Y21643I-368J-3229D01*
G01Y15196D01*
G02X133364I-3250J-3464D01*
G01Y21357D01*
X121322Y33400D01*
X121093D01*
X119394Y35100D01*
X119226D01*
X102283Y52043D01*
G03X101600Y51760I-283J-283D01*
G01Y49244D01*
G02X101227Y45136I-3600J-1744D01*
G03X101550Y44500I323J-236D01*
G01X104036D01*
X126799Y21737D01*
X126868Y21729D01*
G02X129750Y18500I-368J-3229D01*
G01Y15300D01*
G02X123250Y15085I-3136J-3568D01*
G01Y18214D01*
X101964Y39500D01*
X99502D01*
G03X99219Y38817I0J-400D01*
G01X116913Y21123D01*
X116982Y21115D01*
G02X119864Y17886I-368J-3229D01*
G01Y15196D01*
G02X113364I-3250J-3464D01*
G01Y17600D01*
X110933Y20031D01*
G03X110250Y19748I-283J-283D01*
G01Y15368D01*
G02X110207Y14839I-3250J0D01*
G02X103750Y15521I-3593J-3108D01*
G01Y20214D01*
X87030Y36934D01*
G03X86361Y36547I-283J-283D01*
G02X81973Y31535I-3861J-1047D01*
G02X75500Y35123I-3973J465D01*
G01Y62725D01*
X76190Y63415D01*
Y72429D01*
X81290D01*
Y72367D01*
X81434Y72325D01*
G02X81695Y72231I-723J-2445D01*
G02X83665Y72232I985J-2352D01*
G02X85635Y72231I985J-2352D01*
G02X87605I985J-2352D01*
G02X87913Y72338I985J-2352D01*
G01X88060Y72378D01*
Y73405D01*
X86964Y74500D01*
X77414D01*
X74493Y71579D01*
X73615D01*
X69477Y67441D01*
X69485Y67348D01*
G02X63137Y63773I-3985J-348D01*
G03X62500Y63450I-236J-323D01*
G01Y63036D01*
X72500Y53036D01*
Y44123D01*
G02X67500I-2500J-3123D01*
G01Y50964D01*
X61183Y57281D01*
G03X60500Y56998I-283J-283D01*
G01Y39536D01*
X76036Y24000D01*
X91923D01*
G02X96298Y23798I2077J-2500D01*
G01X99864Y20232D01*
Y15196D01*
G37*
G36*
G01X36400Y94600D02*
X26600D01*
Y106250D01*
X18904D01*
X16404Y108750D01*
X16332D01*
G02Y115250I-2332J3250D01*
G01X19096D01*
X21596Y112750D01*
X26600D01*
Y114400D01*
X36400D01*
Y102750D01*
X38154D01*
X41750Y106346D01*
Y118654D01*
X30654Y129750D01*
X22900D01*
Y128100D01*
X13100D01*
Y137900D01*
X14200D01*
Y147000D01*
X22000D01*
Y137900D01*
X22900D01*
Y136250D01*
X33346D01*
X48250Y121346D01*
Y103654D01*
X40846Y96250D01*
X36400D01*
Y94600D01*
G37*
G54D28*
X258000Y90500D03*
Y50500D03*
G54D33*
X18100Y171667D03*
G54D32*
X18000Y161000D03*
G54D30*
X233000Y73000D03*
X223000Y68000D03*
X176614Y287402D03*
X186614D03*
X96614D03*
X106614D03*
X116614D03*
G54D29*
X223000Y78000D03*
G54D31*
X233000Y63000D03*
%LPD*%
G75*
G36*
G01X67660Y72696D02*
X65941Y70977D01*
X65848Y70985D01*
G03X63137Y70227I-348J-3985D01*
G02X62500Y70550I-236J323D01*
G01Y73464D01*
X63889Y74853D01*
G02X64527Y74754I283J-283D01*
G03X66790Y73379I2264J1175D01*
G01X67377D01*
G02X67660Y72696I0J-400D01*
G37*
G36*
G01X61100Y92219D02*
Y96400D01*
X54255D01*
G02X53972Y97083I0J400D01*
G01X63139Y106250D01*
X64240D01*
Y100959D01*
X64302D01*
X64345Y100815D01*
G03X64438Y100554I2445J724D01*
G03X64438Y98584I2352J-985D01*
G03Y96614I2352J-985D01*
G03Y94644I2352J-985D01*
G03X64404Y92760I2352J-985D01*
G02X64029Y92219I-374J-141D01*
G01X61583D01*
X61442Y92077D01*
G02X61100Y92219I-141J141D01*
G37*
G36*
G01X50364Y88382D02*
G02X49750Y88720I-214J338D01*
G01Y92861D01*
X53217Y96328D01*
G02X53900Y96045I283J-283D01*
G01Y91100D01*
X53600D01*
Y89636D01*
X52941Y88977D01*
X52848Y88985D01*
G03X50364Y88382I-348J-3985D01*
G37*
G36*
G01X91600Y47361D02*
X90000Y48961D01*
Y49400D01*
X93863D01*
G02X94239Y48864I0J-400D01*
G03X94590Y45409I3761J-1363D01*
G02X94249Y44800I-341J-209D01*
G01X94161D01*
X92360Y46600D01*
X92068D01*
X91600Y47068D01*
Y47361D01*
G37*
G36*
G01X102910Y109030D02*
X103057Y109070D01*
G03X103365Y109177I-676J2459D01*
G03X105335Y109177I985J2352D01*
G03X107305I985J2352D01*
G03X108558Y108993I985J2352D01*
G02X109000Y108595I42J-398D01*
G01Y104536D01*
X86833Y82369D01*
X75240D01*
Y86359D01*
X75178D01*
X75136Y86502D01*
G03X75042Y86764I-2445J-723D01*
G03Y88734I-2352J985D01*
G03X74854Y91070I-2352J985D01*
G03X74853Y92308I-2163J619D01*
G03X75042Y94644I-2163J1351D01*
G03Y96614I-2352J985D01*
G03Y98584I-2352J985D01*
G03X75043Y100554I-2352J985D01*
G03X75136Y100815I-2352J985D01*
G01X75178Y100959D01*
X75240D01*
Y101284D01*
G02X75923Y101566I400J0D01*
G01X78240Y99250D01*
X97139D01*
X102354Y104465D01*
G03X102927Y107518I-1945J1945D01*
G01X102910Y107556D01*
Y109030D01*
G37*
G36*
G01X93920Y72429D02*
Y72359D01*
G02X93633Y72178I-200J0D01*
G03X93207Y72338I-1103J-2299D01*
G01X93060Y72378D01*
Y75476D01*
X90036Y78500D01*
X111107Y99571D01*
G02X111790Y99288I283J-283D01*
G01Y98989D01*
X111853D01*
X111895Y98846D01*
G03X111988Y98584I2446J723D01*
G03Y96614I2352J-985D01*
G03Y94644I2352J-985D01*
G03X112177Y92308I2352J-985D01*
G03X112177Y91070I2163J-620D01*
G03X111988Y88734I2163J-1350D01*
G03Y86764I2352J-985D01*
G03Y84794I2352J-985D01*
G03X112090Y82609I2352J-985D01*
G01Y81069D01*
G03X111988Y78884I2250J-1200D01*
G03Y76914I2352J-985D01*
G03X114340Y73379I2352J-985D01*
G01X119255D01*
X125090Y67543D01*
X125106Y67504D01*
G03X127669Y65750I2563J996D01*
G01X163378D01*
G02X163519Y65408I0J-200D01*
G01X163361Y65250D01*
X115055D01*
X110876Y69429D01*
X110840D01*
Y69879D01*
G03X107305Y72231I-2550J0D01*
G03X105335I-985J-2352D01*
G03X103365Y72232I-985J-2352D01*
G03X101395Y72231I-985J-2352D01*
G03X99425I-985J-2352D01*
G03X99164Y72325I-985J-2352D01*
G01X99020Y72367D01*
Y72429D01*
X93920D01*
G37*
G36*
G01X137807Y75273D02*
G03X134000Y80500I-3807J1227D01*
G02X133600Y80900I0J400D01*
G01Y83250D01*
X168895D01*
G02X169178Y82567I0J-400D01*
G01X161361Y74750D01*
X138188D01*
G02X137807Y75273I0J400D01*
G37*
G36*
G01X124421Y86957D02*
X123774Y86309D01*
X122739D01*
X122699Y86456D01*
G03X122592Y86764I-2459J-677D01*
G03Y88734I-2352J985D01*
G03X122627Y90618I-2352J985D01*
G02X123001Y91159I374J141D01*
G01X126400D01*
Y88688D01*
X126254Y88647D01*
G03X124437Y86996I746J-2647D01*
G01X124421Y86957D01*
G37*
G36*
G01X125869Y128459D02*
X126010Y128600D01*
X127861Y126750D01*
X140400D01*
Y118600D01*
X138750D01*
Y116000D01*
G02X138399Y114531I-3250J0D01*
G03X138356Y114350I357J-181D01*
G02X137956Y113950I-400J0D01*
G01X136600D01*
Y112500D01*
X133464D01*
X125003Y104039D01*
X122790D01*
Y104089D01*
X122728D01*
X122686Y104232D01*
G03X122592Y104494I-2445J-724D01*
G03X120240Y108029I-2352J985D01*
G01X120220D01*
G02X119937Y108712I0J400D01*
G01X122250Y111025D01*
Y118600D01*
X120600D01*
Y128400D01*
X125728D01*
G03X125869Y128459I0J200D01*
G37*
G36*
G01X133600Y88750D02*
Y91281D01*
G02X134273Y91574I400J0D01*
G03X140273Y92200I2727J2927D01*
G02X141000Y91970I327J-230D01*
G01Y91964D01*
X143531Y89433D01*
G02X143248Y88750I-283J-283D01*
G01X133600D01*
G37*
G36*
G01X155250D02*
Y94250D01*
X151450D01*
Y94550D01*
X146000D01*
Y96050D01*
X150400D01*
Y103950D01*
X136600D01*
Y102536D01*
X136133Y102069D01*
X131071D01*
G02X130788Y102752I0J400D01*
G01X135536Y107500D01*
X136600D01*
Y106050D01*
X150400D01*
Y113950D01*
X151950D01*
Y114250D01*
X155750D01*
Y116250D01*
X174861D01*
X178828Y112283D01*
G02X178545Y111600I-283J-283D01*
G01X153622D01*
Y98400D01*
X179045D01*
G02X179328Y97717I0J-400D01*
G01X170361Y88750D01*
X155250D01*
G37*
%LPC*%
G75*
G36*
G01X128750Y113752D02*
Y118600D01*
X132250D01*
Y116286D01*
X129433Y113469D01*
G02X128750Y113752I-283J283D01*
G37*
%LPD*%
G75*
G54D10*
G01X31500Y109500D02*
X20250D01*
X17750Y112000D01*
X14000D01*
G01X18000Y133000D02*
X32000D01*
X45000Y120000D01*
Y105000D01*
X39500Y99500D01*
X31500D01*
G01X96614Y11732D02*
Y18886D01*
X94000Y21500D01*
G01X136614Y287402D02*
Y253114D01*
X62000Y178500D01*
Y138000D01*
G01X126614Y287402D02*
Y250114D01*
X58000Y181500D01*
Y135500D01*
G01X146614Y287402D02*
Y257114D01*
X65500Y176000D01*
Y139000D01*
G01X69500D02*
Y173500D01*
X156614Y260614D01*
Y287402D01*
G01X107000Y20500D02*
Y15368D01*
G01X126500Y18500D02*
Y15096D01*
G01X116614Y11732D02*
Y17886D01*
G01X96614Y157402D02*
Y151886D01*
X98000Y150500D01*
G01X167000Y189500D02*
X176614Y179886D01*
Y157402D01*
G01X129500Y175000D02*
X136614Y167886D01*
Y157402D01*
G01X166614D02*
Y178886D01*
X159000Y186500D01*
G01X146614Y182500D02*
X156614Y172500D01*
Y157402D01*
G01X138000Y179000D02*
X146614Y170386D01*
Y157402D01*
G01X105000Y164500D02*
X106614Y162886D01*
Y157402D01*
G01X117902Y171500D02*
X126614Y162788D01*
Y157402D01*
G01X113000Y168000D02*
X116614Y164386D01*
Y157402D01*
G01X162500Y129500D02*
X156500Y135500D01*
Y138368D01*
G01X176614Y11732D02*
Y20386D01*
G01X166614Y11732D02*
Y22386D01*
G01X156500Y15096D02*
Y21000D01*
G01X146614Y11732D02*
Y22886D01*
G01X136614Y11732D02*
Y21643D01*
G01X146614Y138482D02*
X159596Y125500D01*
G01X126500Y138368D02*
Y132000D01*
G01X136500Y138368D02*
Y133500D01*
G01X186614Y11732D02*
Y14982D01*
X186000Y15596D01*
Y77000D01*
X201500Y92500D01*
Y142516D01*
X186614Y157402D01*
G01X166614Y287402D02*
Y215386D01*
X184000Y198000D01*
Y169000D01*
X181500Y166500D01*
X12402Y11614D03*
Y287598D03*
X263189Y11614D03*
Y287598D03*
G54D20*
X96614Y11732D03*
X106614D03*
X116614D03*
X96614Y157402D03*
X106614D03*
X116614D03*
Y141732D03*
X106614D03*
X96614D03*
X116614Y287402D03*
X106614D03*
X96614D03*
X126614Y11732D03*
X136614D03*
X126614Y157402D03*
X136614D03*
Y141732D03*
X126614D03*
X136614Y287402D03*
X126614D03*
X146614Y11732D03*
X156614D03*
X166614D03*
X146614Y157402D03*
X156614D03*
X166614D03*
Y141732D03*
X156614D03*
X146614D03*
X166614Y287402D03*
X156614D03*
X146614D03*
X176614Y11732D03*
X186614D03*
X176614Y157402D03*
X186614D03*
Y141732D03*
X176614D03*
X186614Y287402D03*
X176614D03*
X223000Y68000D03*
X233000Y73000D03*
X223000Y78000D03*
G54D11*
X14900Y30100D03*
X14000Y112000D03*
X15000Y265000D03*
X70000Y41000D03*
X65500Y67000D03*
X52500Y74500D03*
Y85000D03*
X82500Y35500D03*
X78000Y32000D03*
X92400Y47400D03*
X98000Y47500D03*
X133900Y82100D03*
X134000Y76500D03*
X137000Y94500D03*
X230000Y15000D03*
X260000Y265000D03*
G54D12*
X18000Y133000D03*
Y161000D03*
X31500Y69500D03*
Y79500D03*
Y89500D03*
Y109500D03*
Y99500D03*
G54D21*
X143500Y110000D03*
Y100000D03*
G54D13*
X69740Y85779D03*
Y81839D03*
Y79869D03*
Y77899D03*
Y75929D03*
Y105479D03*
Y101539D03*
Y99569D03*
Y97599D03*
Y95629D03*
Y93659D03*
Y91689D03*
Y89719D03*
Y87749D03*
X117290Y75929D03*
Y77899D03*
Y79869D03*
Y83809D03*
Y85779D03*
Y87749D03*
Y89719D03*
Y91689D03*
Y93659D03*
Y95629D03*
Y97599D03*
Y99569D03*
Y103509D03*
Y105479D03*
G54D22*
X167122Y105000D03*
G54D14*
X69740Y83809D03*
Y103509D03*
X117290Y81839D03*
Y101539D03*
G54D23*
X148450Y91500D03*
X152550D03*
X153050Y117000D03*
X148950D03*
G54D24*
X233000Y63000D03*
G54D15*
X57500Y87500D03*
Y93100D03*
X130000Y76500D03*
Y82100D03*
Y96500D03*
Y90900D03*
G54D16*
X92400Y53000D03*
X98000D03*
G54D25*
X258000Y50500D03*
Y90500D03*
G54D26*
G01X18000Y156200D02*
Y161000D01*
G01D02*
Y165800D01*
G01X13200Y161000D02*
X18000D01*
G01D02*
X22800D01*
G01X90560Y114479D02*
X90560Y107060D01*
G01X24500Y73000D02*
X25500Y72000D01*
Y71600D01*
G01X100410Y106410D02*
Y114479D01*
G01X31500Y89500D02*
Y94300D01*
G01X26700Y89500D02*
X31500D01*
G01D02*
X36300D01*
G01X94000Y21500D02*
X75000D01*
X58000Y38500D01*
Y77000D01*
X60869Y79869D01*
X69740D01*
G01Y77899D02*
X63399Y77899D01*
X60000Y74500D01*
Y62000D01*
X70000Y52000D01*
Y41000D01*
G01X65500Y67000D02*
X72579Y74079D01*
X73457D01*
X76378Y77000D01*
X88000D01*
X90560Y74440D01*
Y66929D01*
G01X69740Y81839D02*
X57639Y81839D01*
X52500Y76700D01*
Y74500D01*
G01X69740Y89719D02*
X62619Y89719D01*
X60400Y87500D01*
X57500D01*
G01D02*
X55000D01*
X52500Y85000D01*
G01X57500Y93100D02*
X60400D01*
X61811Y91689D01*
X69740D01*
G01X57500Y93100D02*
Y96600D01*
G01X53700Y93100D02*
X57500D01*
G01X62000Y138000D02*
X80710Y119290D01*
Y118980D01*
X80710Y118979D01*
Y114479D01*
G01X58000Y135500D02*
Y133669D01*
X77190Y114479D01*
X78740D01*
G01X65500Y139000D02*
X82680Y121820D01*
Y118980D01*
X82680Y118979D01*
Y114479D01*
G01X84650D02*
Y123850D01*
X69500Y139000D01*
G01X82680Y66929D02*
X82680Y44820D01*
X107000Y20500D01*
G01Y15368D02*
X106614Y14982D01*
Y11732D01*
G01X82500Y35500D02*
Y40500D01*
X80710Y42290D01*
Y66929D01*
G01X78000Y32000D02*
Y61689D01*
X78740Y62429D01*
Y66929D01*
G01X92530D02*
X92530Y61142D01*
X90388Y59000D01*
Y58892D01*
X87500Y55998D01*
Y47925D01*
X89100Y46325D01*
Y46032D01*
X91032Y44100D01*
X91325D01*
X93125Y42300D01*
X94746D01*
X95046Y42000D01*
X103000D01*
X126500Y18500D01*
G01Y15096D02*
X126614Y14982D01*
Y11732D01*
G01X116614Y17886D02*
X94000Y40500D01*
X92379D01*
X90579Y42300D01*
X90286D01*
X87300Y45286D01*
Y45579D01*
X85000Y47879D01*
Y56999D01*
X88590Y60593D01*
Y66929D01*
G01X92400Y53000D02*
Y47400D01*
G01X94500Y66929D02*
Y58000D01*
X92400Y55900D01*
Y53000D01*
G01X90650Y49200D02*
X92400Y53000D01*
G01D02*
X94150Y49200D01*
G01X98000Y150500D02*
X108000D01*
X111500Y147000D01*
Y103500D01*
X87869Y79869D01*
X74241D01*
X74240Y79869D01*
X69740D01*
G01X85000Y95000D02*
X81689Y91689D01*
G01D02*
X69740D01*
G01X86620Y114479D02*
Y126058D01*
X80225Y132453D01*
X80224D01*
X73000Y139677D01*
Y172000D01*
X90500Y189500D01*
X167000D01*
G01X102380Y114479D02*
X102380Y123120D01*
X81100Y144400D01*
Y150253D01*
X81099Y150254D01*
Y162599D01*
X93500Y175000D01*
X129500D01*
G01X159000Y186500D02*
X92000D01*
X75699Y170199D01*
Y139524D01*
X80970Y134253D01*
X80971D01*
X88590Y126634D01*
Y114479D01*
G01X94500D02*
Y123270D01*
X81716Y136054D01*
X81715D01*
X77499Y140270D01*
Y166999D01*
X93000Y182500D01*
X146614D01*
G01X96470Y114479D02*
Y123846D01*
X82462Y137854D01*
X82461D01*
X79299Y141016D01*
Y164409D01*
X85390Y170500D01*
X93890Y179000D01*
X138000D01*
G01X92530Y114479D02*
X92530Y120470D01*
X91500Y121500D01*
G01X108290Y114479D02*
Y130710D01*
X101500Y137500D01*
Y145500D01*
X99500Y147500D01*
X90000D01*
X87500Y150000D01*
Y157000D01*
X95000Y164500D01*
X105000D01*
G01X104350Y114479D02*
Y123696D01*
X82900Y145146D01*
Y150999D01*
X82899Y151000D01*
Y160399D01*
X94000Y171500D01*
X117902D01*
G01X106320Y114479D02*
Y124271D01*
X85000Y145591D01*
Y158500D01*
X94500Y168000D01*
X113000D01*
G01X108290Y66929D02*
X109840D01*
X114269Y62500D01*
G01X156500Y138368D02*
X156614Y138482D01*
Y141732D01*
G01X176614Y20386D02*
X142000Y55000D01*
X113749D01*
X106320Y62429D01*
Y66929D01*
G01X166614Y22386D02*
X139500Y49500D01*
X116000D01*
X104350Y61150D01*
Y66929D01*
G01X156614Y11732D02*
Y14982D01*
X156500Y15096D01*
G01Y21000D02*
X131500Y46000D01*
X116954D01*
X102550Y60404D01*
Y60571D01*
X102380Y60741D01*
Y66929D01*
G01X146614Y22886D02*
X127500Y42000D01*
X118408D01*
X100750Y59658D01*
Y59825D01*
X100580Y59995D01*
Y60420D01*
X100410Y60590D01*
Y66929D01*
G01X136614Y21643D02*
X122357Y35900D01*
X122129D01*
X120429Y37600D01*
X120262D01*
X98950Y58912D01*
Y59079D01*
X98780Y59249D01*
Y59477D01*
X98440Y59817D01*
Y66929D01*
G01X96470D02*
Y57430D01*
X98000Y55900D01*
Y53000D01*
G01D02*
Y47500D01*
G01X94000Y77000D02*
X94500Y76500D01*
G01D02*
Y66929D01*
G01X110000Y90000D02*
X111689Y91689D01*
G01D02*
X117290D01*
G01X99500Y121500D02*
X98440Y120440D01*
Y114479D01*
G01X146614Y141732D02*
Y138482D01*
G01X127669Y68500D02*
X120240Y75929D01*
X117290D01*
G01X126614Y141732D02*
Y138482D01*
X126500Y138368D01*
G01X127000Y86000D02*
X124809Y83809D01*
X117290D01*
G01X136614Y141732D02*
Y138482D01*
X136500Y138368D01*
G01Y133500D02*
X138000Y132000D01*
G01X127689Y72000D02*
X121790Y77899D01*
X117290D01*
G01X130000Y82100D02*
X133900D01*
G01X117290Y81839D02*
X126839Y81839D01*
X127100Y82100D01*
X130000D01*
G01X117290Y79869D02*
X126631Y79869D01*
X127393Y79107D01*
Y78807D01*
X129700Y76500D01*
X130000D01*
G01D02*
X134000D01*
G01X143500Y110000D02*
X134500D01*
X126039Y101539D01*
X117290D01*
G01Y99569D02*
X137169Y99569D01*
X137600Y100000D01*
X143500D01*
G01X117290Y91689D02*
X126311Y91689D01*
X127100Y90900D01*
X130000D01*
G01D02*
X133800D01*
G01X126200Y89150D02*
X130000Y90900D01*
G01X117290Y93659D02*
X126859Y93659D01*
X129700Y96500D01*
X130000D01*
G01D02*
X135000D01*
X137000Y94500D01*
G01X148950Y117000D02*
X144500D01*
X143500Y116000D01*
Y110000D01*
G01X148450Y91500D02*
X145000D01*
X143500Y93000D01*
Y100000D01*
G01X153422Y105000D02*
X167122D01*
G01X152550Y91500D02*
X155450D01*
G01X152550D02*
Y94450D01*
G01X153050Y117000D02*
X155950Y114050D01*
G01X153050D02*
Y117000D01*
G01X167122Y105000D02*
Y111800D01*
G01Y98200D02*
Y105000D01*
G01X223000Y73350D02*
Y78000D01*
G01D02*
Y82650D01*
G01X218350Y78000D02*
X223000D01*
G01D02*
X227650D01*
G01X0Y0D02*
X275591D01*
Y299213D01*
X0D01*
Y0D01*
G01X18797Y141667D02*
X17277D01*
G01X18100Y142750D02*
Y140583D01*
G01X18923Y171667D02*
X17277D01*
G54D17*
X78740Y66929D03*
X96470D03*
X94500Y114479D03*
G54D27*
G01X90560Y107060D02*
X88000Y104500D01*
X81000D01*
X73000Y112500D01*
X62000D01*
X44000Y94500D01*
Y88500D01*
X40000Y84500D01*
X27000D01*
X24500Y82000D01*
Y73000D01*
G01X25500Y71600D02*
X27600Y69500D01*
X31500D01*
G01Y79500D02*
X39500D01*
X47000Y87000D01*
Y94000D01*
X62000Y109000D01*
X72379D01*
X79379Y102000D01*
X96000D01*
X100410Y106410D01*
G01X114269Y62500D02*
X164500D01*
X193000Y91000D01*
Y116000D01*
X179500Y129500D01*
X162500D01*
G01X159596Y125500D02*
X179500D01*
X189500Y115500D01*
Y94000D01*
X164000Y68500D01*
X127669D01*
G01X126500Y132000D02*
X129000Y129500D01*
X146000D01*
X156500Y119000D01*
X176000D01*
X182500Y112500D01*
Y97000D01*
X171500Y86000D01*
X127000D01*
G01X138000Y132000D02*
X148000D01*
X158000Y122000D01*
X178621D01*
X185500Y115121D01*
Y95000D01*
X162500Y72000D01*
X127689D01*
G01X181500Y166500D02*
Y152500D01*
X178500Y149500D01*
X174382D01*
X166614Y141732D01*
G54D18*
X80710Y66929D03*
X82680D03*
X84650D03*
X86620D03*
X88590D03*
X90560D03*
X92530D03*
Y114479D03*
X90560D03*
X88590D03*
X86620D03*
X84650D03*
X82680D03*
X80710D03*
X78740D03*
X94500Y66929D03*
X98440D03*
X100410D03*
X102380D03*
X104350D03*
X106320D03*
X108290D03*
Y114479D03*
X106320D03*
X104350D03*
X102380D03*
X100410D03*
X98440D03*
X96470D03*
G54D19*
X91500Y121500D03*
X99500D03*
M02*
